<?xml version="1.0" encoding="UTF-8"?>
<svg xmlns="http://www.w3.org/2000/svg" xmlns:xlink="http://www.w3.org/1999/xlink" version="1.1" id="Ebene_1" x="0px" y="0px" width="1200px" height="800px" viewBox="0 0 1200 800" style="enable-background:new 0 0 1200 800;" xml:space="preserve">
<style type="text/css">
	.st0{fill:#32C8E6;}
	.st1{fill:#002864;}
</style>
<g>
	<g>
		<g>
			<path class="st0" d="M760.4,446.6h17V437h-17v-8.4H786v-9.9h-37.3v46.6h37.5v-9.9h-25.9V446.6z M748.8,465.3L748.8,465.3     L748.8,465.3L748.8,465.3z M714.3,440.7l-11.7-22H688v46.6h10.7v-31.9l15.5,28.6l15.5-28.4v31.8h10.9v-46.6H726L714.3,440.7z      M830.3,425.5c-2.3-2.1-4.9-3.8-7.9-5c-3-1.2-6.3-1.8-9.8-1.8h-19.2v46.6h19.2c3.5,0,6.8-0.6,9.8-1.8s5.7-2.8,7.9-5     c2.3-2.1,4-4.6,5.3-7.4c1.3-2.8,1.9-5.8,1.9-9c0-3.3-0.6-6.3-1.9-9.2C834.3,430.1,832.5,427.7,830.3,425.5 M824.5,447.2     c-0.7,1.6-1.6,3-2.8,4.2c-1.2,1.2-2.6,2.1-4.2,2.8c-1.6,0.7-3.3,1-5.2,1H805v-26.4h7.3c1.9,0,3.6,0.3,5.2,1     c1.6,0.7,3,1.6,4.2,2.8c1.2,1.2,2.2,2.6,2.8,4.2c0.7,1.6,1,3.4,1,5.2C825.5,444,825.2,445.7,824.5,447.2 M975.1,455.2v-36.5     h-11.6v46.6h36.5v-10.1H975.1z M877.7,432.4c1.2-1.2,2.7-2.1,4.3-2.8c1.6-0.7,3.4-1,5.3-1c2.4,0,4.6,0.5,6.6,1.5     c2,1,3.9,2.6,5.6,4.7l7.8-7.6c-1.5-1.9-3.2-3.5-5.4-4.8c-2.1-1.4-4.5-2.4-7-3.2c-2.5-0.8-5.1-1.1-7.7-1.1c-3.5,0-6.9,0.6-10,1.8     c-3.1,1.2-5.8,2.9-8.1,5.1c-2.3,2.2-4.1,4.7-5.4,7.6c-1.3,2.9-1.9,6.1-1.9,9.5c0,3.4,0.6,6.5,1.9,9.4c1.3,2.9,3.1,5.4,5.4,7.6     c2.3,2.2,5,3.9,8.1,5.1c3.1,1.2,6.4,1.8,10,1.8l0,0c2.5,0,5-0.3,7.5-1.1c2.5-0.7,4.8-1.8,6.9-3.1c2.1-1.4,3.9-2.9,5.3-4.8     l-7.6-7.4c-1.6,1.9-3.3,3.4-5.3,4.3c-2,1-4.1,1.5-6.4,1.5c-2,0-3.8-0.3-5.5-1c-1.7-0.7-3.1-1.6-4.4-2.8c-1.2-1.2-2.2-2.6-2.9-4.3     c-0.7-1.6-1.1-3.4-1.1-5.3c0-1.9,0.3-3.8,1-5.4C875.5,435,876.5,433.6,877.7,432.4 M843.9,465.3h11.6v-46.6h-11.6V465.3z      M927.1,418.7l-19.4,46.6h12.1l4.4-11.2h18.4l4.3,11.2h12.6l-19.1-46.6H927.1z M927.7,444.9l5.8-14.9l5.7,14.9H927.7z"></path>
			<path class="st1" d="M290.7,386.4h-40.2v28h40.2V386.4z M200,466h99.8v-28h-67.4c0,0,0-38,0-38l0-38h67.4v-28H200V466z      M534.4,373.4c-6.1-5.8-13.5-8.7-21.8-9.5c-12.6-1.1-23.8,2-33.2,10.8c-0.4,0.3-0.8,0.6-1.4,1.2V367h-31.2v98.9H478l0.1-48.3     c0-5.8,1-11.5,4-16.7c6.2-10.9,22.5-12.2,29.5-2.3c2.9,4,3.7,8.6,3.7,13.4v54h31.2v-58.2c0-3.8-0.2-7.7-0.7-11.4     C544.6,387.5,541.1,379.7,534.4,373.4 M678.7,368.1c-2.6-12.6-9.7-22-21.1-28.2c-8.2-4.4-17.1-6-26.3-6l-64.3,0v132h32.3V362.1     h32.8c7.6,0.2,13.5,5.6,15.4,12.3c2.1,7.5-0.2,15.3-5.8,19.6c-4,3.1-8.6,4.1-13.5,4.1c-3.8,0-7.5,0-11.3,0v27.1     c4.3,0,8.7,0,13-0.1c4.8-0.1,9.7-0.5,14.4-1.5c13.2-2.7,23.8-9.5,30.3-21.7C680.3,391.3,681.2,379.8,678.7,368.1 M408.2,340     c-8.2-4.4-17.1-6-26.3-6l-64.3,0v132h32.3V362.1h32.8c7.6,0.2,13.5,5.6,15.4,12.3c2.1,7.5-0.2,15.3-5.8,19.6     c-4,3.1-8.6,4.1-13.5,4.1c-3.8,0-7.5,0-11.3,0v27.1c4.3,0,8.7,0,13-0.1c4.8-0.1,9.7-0.5,14.4-1.5c13.2-2.7,23.8-9.5,30.3-21.7     c5.7-10.7,6.5-22.1,4.1-33.8C426.7,355.5,419.6,346.1,408.2,340"></path>
		</g>
	</g>
</g>
</svg>
